<svg width="16" height="16" viewBox="0 0 16 16" fill="none" xmlns="http://www.w3.org/2000/svg">
<g clip-path="url(#clip0_1163_66)">
<path d="M15.9915 8.14966C15.9915 7.49415 15.9371 7.0158 15.8193 6.51974H8.15933V9.47839H12.6555C12.5649 10.2137 12.0754 11.321 10.9876 12.065L10.9724 12.1641L13.3943 13.9975L13.5621 14.0139C15.1031 12.6231 15.9915 10.5768 15.9915 8.14966Z" fill="#4285F4"/>
<path d="M8.15934 15.945C10.3621 15.945 12.2114 15.2363 13.5621 14.0139L10.9876 12.065C10.2987 12.5345 9.37403 12.8623 8.15934 12.8623C6.00188 12.8623 4.17076 11.4716 3.51802 9.5493L3.42234 9.55724L0.903978 11.4618L0.871044 11.5512C2.21265 14.1556 4.96843 15.945 8.15934 15.945Z" fill="#34A853"/>
<path d="M3.51796 9.54929C3.34572 9.05323 3.24605 8.52169 3.24605 7.9725C3.24605 7.42325 3.34572 6.89177 3.50889 6.39571L3.50433 6.29006L0.954412 4.35492L0.870984 4.3937C0.318042 5.47443 0.000762513 6.68804 0.000762513 7.9725C0.000762513 9.25696 0.318042 10.4705 0.870984 11.5512L3.51796 9.54929Z" fill="#FBBC05"/>
<path d="M8.15934 3.08268C9.6913 3.08268 10.7247 3.72934 11.3139 4.26973L13.6165 2.07285C12.2024 0.788395 10.3621 0 8.15934 0C4.96843 0 2.21265 1.78937 0.871044 4.3937L3.50895 6.39571C4.17076 4.47346 6.00188 3.08268 8.15934 3.08268Z" fill="#EB4335"/>
</g>
<defs>
<clipPath id="clip0_1163_66">
<rect width="15.3686" height="15.3686" fill="white" transform="scale(1.04108)"/>
</clipPath>
</defs>
</svg>
