<svg width="48" height="48" viewBox="0 0 48 48" fill="none" xmlns="http://www.w3.org/2000/svg">
<path d="M39.3 6H8.7C7.2 6 6 7.2 6 8.55V39.3C6 40.65 7.2 41.85 8.7 41.85H39.3C40.8 41.85 42 40.65 42 39.3V8.55C42 7.2 40.8 6 39.3 6ZM16.65 36.6H11.4V19.5H16.65V36.6ZM14.1 17.1C12.45 17.1 10.95 15.75 10.95 13.95C10.95 12.15 12.3 10.8 14.1 10.8C15.75 10.8 17.25 12.15 17.25 13.95C17.25 15.75 15.75 17.1 14.1 17.1ZM36.75 36.45H31.5V28.05C31.5 26.1 31.5 23.4 28.65 23.4C25.8 23.4 25.5 25.65 25.5 27.75V36.3H20.25V19.5H25.2V21.75H25.35C26.1 20.4 27.9 18.9 30.45 18.9C35.85 18.9 36.9 22.5 36.9 27.15V36.45H36.75Z" fill="white"/>
</svg>
