<svg width="50" height="48" viewBox="0 0 50 48" fill="none" xmlns="http://www.w3.org/2000/svg">
<path d="M21.3235 22.3605C20.8695 22.3237 20.4145 22.4192 20.0181 22.6348C19.6216 22.8503 19.3022 23.1757 19.1015 23.5683C18.9009 23.961 18.8285 24.4027 18.8936 24.8356C18.9588 25.2685 19.1587 25.6724 19.4669 25.9944C19.7752 26.3165 20.1776 26.5417 20.6214 26.6406C21.0652 26.7394 21.5297 26.7074 21.9543 26.5486C22.3788 26.3898 22.7435 26.1117 23.0006 25.7506C23.2577 25.3896 23.3953 24.9624 23.3954 24.525C23.4075 24.2523 23.3636 23.9799 23.266 23.7234C23.1684 23.467 23.0192 23.2315 22.8267 23.0305C22.6343 22.8295 22.4025 22.6668 22.1446 22.5519C21.8866 22.4369 21.6076 22.3719 21.3235 22.3605ZM28.7376 22.3605C28.2836 22.3237 27.8286 22.4192 27.4321 22.6348C27.0357 22.8503 26.7162 23.1757 26.5156 23.5683C26.315 23.961 26.2425 24.4027 26.3077 24.8356C26.3729 25.2685 26.5727 25.6724 26.881 25.9944C27.1893 26.3165 27.5916 26.5417 28.0354 26.6406C28.4792 26.7394 28.9438 26.7074 29.3683 26.5486C29.7928 26.3898 30.1575 26.1117 30.4147 25.7506C30.6718 25.3896 30.8094 24.9624 30.8094 24.525C30.8216 24.2523 30.7776 23.9799 30.6801 23.7234C30.5825 23.467 30.4332 23.2315 30.2408 23.0305C30.0484 22.8295 29.8166 22.6668 29.5586 22.5519C29.3007 22.4369 29.0217 22.3719 28.7376 22.3605Z" fill="white"/>
<path d="M38.6094 6H11.3906C10.8424 6.00118 10.2999 6.10603 9.79388 6.30856C9.28791 6.51109 8.82845 6.80734 8.44176 7.18037C8.05507 7.5534 7.74873 7.99591 7.54022 8.48263C7.33172 8.96935 7.22514 9.49073 7.22658 10.017V36.381C7.22514 36.9073 7.33172 37.4287 7.54022 37.9154C7.74873 38.4021 8.05507 38.8446 8.44176 39.2176C8.82845 39.5907 9.28791 39.8869 9.79388 40.0894C10.2999 40.292 10.8424 40.3968 11.3906 40.398H34.425L33.3485 36.7905L35.9485 39.111L38.4063 41.295L42.7735 45V10.017C42.7749 9.49073 42.6683 8.96935 42.4598 8.48263C42.2513 7.99591 41.945 7.5534 41.5583 7.18037C41.1716 6.80734 40.7121 6.51109 40.2062 6.30856C39.7002 6.10603 39.1576 6.00118 38.6094 6ZM30.7688 31.467C30.7688 31.467 30.0375 30.6285 29.4281 29.8875C30.9005 29.5547 32.2028 28.7327 33.1047 27.567C32.3738 28.0339 31.5902 28.4199 30.7688 28.7175C29.8238 29.1047 28.8355 29.3861 27.8235 29.556C26.0838 29.8635 24.2997 29.8569 22.5625 29.5365C21.5427 29.3449 20.5432 29.0643 19.5766 28.698C19.0671 28.5099 18.5716 28.2884 18.0938 28.035C18.0328 27.996 17.9719 27.9765 17.911 27.9375C17.8804 27.9229 17.8529 27.9031 17.8297 27.879C17.6348 27.7771 17.4451 27.6664 17.261 27.5475C18.1302 28.6888 19.3876 29.5027 20.8156 29.8485C20.2063 30.5895 19.4547 31.467 19.4547 31.467C18.2481 31.4982 17.052 31.2442 15.9717 30.7274C14.8913 30.2105 13.9599 29.4466 13.2594 28.503C13.3253 24.5498 14.3255 20.6626 16.1844 17.1345C17.8202 15.9011 19.8146 15.1856 21.8922 15.087L22.0953 15.321C20.1407 15.7854 18.3167 16.6575 16.7531 17.8755C16.7531 17.8755 17.2 17.6415 17.9516 17.31C19.4117 16.6702 20.9678 16.2556 22.5625 16.0815C22.6762 16.0589 22.7918 16.0459 22.9078 16.0425C24.269 15.8723 25.6465 15.8592 27.011 16.0035C29.1566 16.2387 31.2337 16.8747 33.125 17.8755C31.6407 16.7156 29.9167 15.8715 28.0672 15.399L28.3516 15.087C30.4291 15.1856 32.4235 15.9011 34.0594 17.1345C35.9183 20.6626 36.9184 24.5498 36.9844 28.503C36.2782 29.4457 35.3428 30.2085 34.2595 30.7251C33.1763 31.2416 31.9779 31.4963 30.7688 31.467Z" fill="white"/>
</svg>
