<svg width="13" height="16" viewBox="0 0 13 16" fill="none" xmlns="http://www.w3.org/2000/svg">
<path d="M7.17277 1.37717C8.22051 0.00668136 9.67712 0 9.67712 0C9.67712 0 9.89379 1.28849 8.85291 2.52971C7.74151 3.85507 6.47826 3.6382 6.47826 3.6382C6.47826 3.6382 6.24105 2.59585 7.17277 1.37717ZM6.61151 4.54078C7.15053 4.54078 8.15091 3.80546 9.45304 3.80546C11.6944 3.80546 12.5762 5.38827 12.5762 5.38827C12.5762 5.38827 10.8516 6.26332 10.8516 8.38659C10.8516 10.7818 13 11.6073 13 11.6073C13 11.6073 11.4982 15.8022 9.46973 15.8022C8.53806 15.8022 7.81373 15.1791 6.83209 15.1791C5.83171 15.1791 4.83898 15.8254 4.19241 15.8254C2.3401 15.8255 0 11.8462 0 8.6475C0 5.50045 1.98074 3.84956 3.8386 3.84956C5.04637 3.84956 5.98362 4.54078 6.61151 4.54078Z" fill="#999999"/>
</svg>
