<svg width="24" height="27" viewBox="0 0 24 27" fill="none" xmlns="http://www.w3.org/2000/svg">
<g opacity="0.4">
<path fill-rule="evenodd" clip-rule="evenodd" d="M7.81 2.20248H16.191C19.28 2.20248 21 4.16269 21 7.52148V18.8973C21 22.3112 19.28 24.2273 16.191 24.2273H7.81C4.77 24.2273 3 22.3112 3 18.8973V7.52148C3 4.16269 4.77 2.20248 7.81 2.20248ZM8.07999 7.33427V7.32326H11.069C11.5 7.32326 11.85 7.70869 11.85 8.18112C11.85 8.66677 11.5 9.05221 11.069 9.05221H8.07999C7.64899 9.05221 7.29999 8.66677 7.29999 8.19324C7.29999 7.7197 7.64899 7.33427 8.07999 7.33427ZM8.07999 14.0298H15.92C16.35 14.0298 16.7 13.6444 16.7 13.1709C16.7 12.6973 16.35 12.3108 15.92 12.3108H8.07999C7.64899 12.3108 7.29999 12.6973 7.29999 13.1709C7.29999 13.6444 7.64899 14.0298 8.07999 14.0298ZM8.07999 19.0625H15.92C16.319 19.0184 16.62 18.6429 16.62 18.2035C16.62 17.752 16.319 17.3776 15.92 17.3335H8.07999C7.77999 17.3005 7.48999 17.4547 7.32999 17.741C7.16999 18.0163 7.16999 18.3797 7.32999 18.666C7.48999 18.9414 7.77999 19.1065 8.07999 19.0625Z" fill="#030229"/>
</g>
</svg>
