<svg width="36" height="36" viewBox="0 0 36 36" fill="none" xmlns="http://www.w3.org/2000/svg">
<g clip-path="url(#clip0_22_3023)">
<path d="M22.2801 17.2998L10.4556 15.1998V30.7167C10.4556 31.4253 11.0264 31.9998 11.7305 31.9998H32.1341C32.8382 31.9998 33.4091 31.4253 33.4091 30.7167V24.9998L22.2801 17.2998Z" fill="#185C37"/>
<path d="M22.2801 4H11.7305C11.0264 4 10.4556 4.57446 10.4556 5.2831V11L22.2801 18L28.5401 20.1L33.4091 18V11L22.2801 4Z" fill="#21A366"/>
<path d="M10.4556 11H22.2801V18H10.4556V11Z" fill="#107C41"/>
<path opacity="0.1" d="M18.9185 9.60049H10.4556V27.1005H18.9185C19.6216 27.0982 20.1911 26.5251 20.1934 25.8174V10.8836C20.1911 10.1759 19.6216 9.60279 18.9185 9.60049Z" fill="black"/>
<path opacity="0.2" d="M18.2229 10.3002H10.4556V27.8002H18.2229C18.9261 27.7979 19.4956 27.2248 19.4978 26.5171V11.5833C19.4956 10.8757 18.9261 10.3025 18.2229 10.3002Z" fill="black"/>
<path opacity="0.2" d="M18.2229 10.3002H10.4556V26.4002H18.2229C18.9261 26.3979 19.4956 25.8248 19.4978 25.1172V11.5833C19.4956 10.8757 18.9261 10.3025 18.2229 10.3002Z" fill="black"/>
<path opacity="0.2" d="M17.5273 10.3002H10.4556V26.4002H17.5273C18.2305 26.3979 18.8 25.8248 18.8023 25.1172V11.5833C18.8 10.8757 18.2305 10.3025 17.5273 10.3002Z" fill="black"/>
<path d="M4.77496 10.3002H17.5274C18.2315 10.3002 18.8023 10.8747 18.8023 11.5833V24.4171C18.8023 25.1258 18.2315 25.7002 17.5274 25.7002H4.77496C4.07082 25.7002 3.5 25.1258 3.5 24.4171V11.5833C3.5 10.8747 4.07082 10.3002 4.77496 10.3002Z" fill="url(#paint0_linear_22_3023)"/>
<path d="M7.44873 22.1706L10.1308 17.9881L7.6734 13.8287H9.65018L10.9912 16.4887C11.115 16.7414 11.1999 16.929 11.2458 17.0529H11.2632C11.3513 16.8513 11.444 16.6555 11.5414 16.4656L12.975 13.8301H14.7897L12.2696 17.965L14.8537 22.1706H12.9228L11.3738 19.2509C11.3008 19.1267 11.2389 18.9962 11.1888 18.861H11.1658C11.1204 18.9934 11.0602 19.1203 10.9864 19.239L9.39144 22.1706H7.44873Z" fill="white"/>
<path d="M32.134 4H22.28V11H33.409V5.2831C33.409 4.57446 32.8382 4 32.134 4Z" fill="#33C481"/>
<path d="M22.28 18H33.409V25H22.28V18Z" fill="#107C41"/>
</g>
<defs>
<linearGradient id="paint0_linear_22_3023" x1="6.15832" y1="9.29766" x2="16.2396" y2="26.6473" gradientUnits="userSpaceOnUse">
<stop stop-color="#18884F"/>
<stop offset="0.5" stop-color="#117E43"/>
<stop offset="1" stop-color="#0B6631"/>
</linearGradient>
<clipPath id="clip0_22_3023">
<rect width="29.9091" height="28" fill="white" transform="translate(3.5 4)"/>
</clipPath>
</defs>
</svg>
