<svg width="24" height="27" viewBox="0 0 24 27" fill="none" xmlns="http://www.w3.org/2000/svg">
<g opacity="0.4">
<path fill-rule="evenodd" clip-rule="evenodd" d="M18.7071 9.68689C18.7071 11.07 19.039 11.8852 19.7695 12.8246C20.3231 13.5167 20.5 14.4051 20.5 15.369C20.5 16.3317 20.2128 17.2456 19.6373 17.9876C18.884 18.8771 17.8215 19.445 16.7372 19.5437C15.1659 19.6912 13.5937 19.8155 12.0005 19.8155C10.4063 19.8155 8.83505 19.7411 7.26375 19.5437C6.17846 19.445 5.11602 18.8771 4.36367 17.9876C3.78822 17.2456 3.5 16.3317 3.5 15.369C3.5 14.4051 3.6779 13.5167 4.23049 12.8246C4.98384 11.8852 5.29392 11.07 5.29392 9.68689V9.21772C5.29392 7.36548 5.71333 6.15431 6.577 4.96865C7.86106 3.23952 9.91935 2.20248 11.9558 2.20248H12.0452C14.1254 2.20248 16.2502 3.28943 17.5125 5.09287C18.3314 6.25413 18.7071 7.41428 18.7071 9.21772V9.68689ZM9.07367 22.0918C9.07367 21.5372 9.53582 21.2833 9.96318 21.1746C10.4631 21.0581 13.5093 21.0581 14.0092 21.1746C14.4365 21.2833 14.8987 21.5372 14.8987 22.0918C14.8738 22.6198 14.5926 23.0878 14.204 23.3851C13.7001 23.8176 13.1087 24.0916 12.4906 24.1903C12.1487 24.2391 11.8128 24.2402 11.4828 24.1903C10.8636 24.0916 10.2723 23.8176 9.76937 23.3839C9.37978 23.0878 9.09852 22.6198 9.07367 22.0918Z" fill="#030229"/>
</g>
</svg>
