<svg width="44" height="44" viewBox="0 0 44 44" fill="none" xmlns="http://www.w3.org/2000/svg">
<path fill-rule="evenodd" clip-rule="evenodd" d="M21.9606 0.00013472C16.7463 0.000855345 11.7023 1.90663 7.7309 5.37654C3.75953 8.84645 1.11984 13.6541 0.284038 18.9396C-0.551767 24.225 0.470836 29.6435 3.16892 34.2256C5.867 38.8077 10.0646 42.2546 15.0107 43.9497C16.1089 44.1592 16.5795 43.4664 16.5795 42.8703V39.036C10.4768 40.3893 9.19038 36.0072 9.19038 36.0072C8.76123 34.6263 7.85801 33.4525 6.64889 32.7046C4.65649 31.319 6.80577 31.3352 6.80577 31.3352C7.50171 31.4361 8.16598 31.6991 8.74784 32.1039C9.32969 32.5088 9.81376 33.0449 10.1631 33.6712C10.7707 34.7904 11.7864 35.6161 12.9867 35.9665C14.187 36.317 15.4737 36.1635 16.5638 35.54C16.6524 34.3969 17.1432 33.326 17.9444 32.5273C13.0811 31.9474 7.95101 30.0141 7.95101 21.3788C7.91545 19.1361 8.7248 16.9659 10.2101 15.3213C9.53782 13.3787 9.61642 11.2453 10.4298 9.36036C10.4298 9.36036 12.2653 8.74816 16.4697 11.6642C20.0646 10.6572 23.8565 10.6572 27.4515 11.6642C31.6402 8.74816 33.4757 9.36036 33.4757 9.36036C34.2891 11.2453 34.3677 13.3787 33.6954 15.3213C35.1807 16.9659 35.99 19.1361 35.9545 21.3788C35.9545 30.0463 30.8244 31.9474 25.9297 32.5112C26.454 33.057 26.8584 33.7118 27.1154 34.4316C27.3725 35.1514 27.4764 35.9194 27.4201 36.6839V42.8703C27.4201 43.6114 27.8123 44.1753 28.9889 43.9497C33.9415 42.2525 38.1434 38.799 40.8411 34.2084C43.5388 29.6178 44.5557 24.1905 43.7096 18.8997C42.8635 13.6089 40.2097 8.80065 36.2241 5.33719C32.2384 1.87373 27.1817 -0.0183883 21.9606 0.00013472Z" fill="white"/>
</svg>
