<svg width="24" height="27" viewBox="0 0 24 27" fill="none" xmlns="http://www.w3.org/2000/svg">
<g opacity="0.4">
<path fill-rule="evenodd" clip-rule="evenodd" d="M16.4109 3.04892L16.4119 3.87444C19.1665 4.11218 20.9862 6.17928 20.9891 9.34927L21 18.6281C21.0039 22.0843 19.0322 24.2108 15.8718 24.2163L8.15188 24.2273C5.01119 24.2317 3.01482 22.0545 3.01087 18.5885L3.00001 9.41861C2.99606 6.22771 4.75153 4.16612 7.50617 3.88764L7.50518 3.06213C7.5042 2.57782 7.83001 2.21349 8.26444 2.21349C8.69886 2.21239 9.02468 2.57562 9.02567 3.05992L9.02666 3.83041L14.8914 3.8216L14.8904 3.05112C14.8894 2.56682 15.2152 2.20359 15.6497 2.20249C16.0742 2.20139 16.4099 2.56461 16.4109 3.04892ZM4.52146 9.75872L19.4696 9.73671V9.35147C19.4272 6.98498 18.349 5.7434 16.4138 5.55849L16.4148 6.40602C16.4148 6.87931 16.0801 7.25465 15.6556 7.25465C15.2211 7.25575 14.8943 6.88152 14.8943 6.40822L14.8933 5.51666L9.02862 5.52547L9.0296 6.41592C9.0296 6.89032 8.70477 7.26456 8.27035 7.26456C7.83592 7.26566 7.50912 6.89252 7.50912 6.41813L7.50813 5.57059C5.58284 5.78303 4.51751 7.02901 4.52048 9.41641L4.52146 9.75872ZM15.2399 14.7614V14.7735C15.2498 15.2798 15.625 15.6639 16.0801 15.6529C16.5244 15.6408 16.8789 15.2214 16.869 14.7151C16.8483 14.2308 16.4918 13.8357 16.0485 13.8368C15.5943 13.8478 15.2389 14.255 15.2399 14.7614ZM16.0554 19.7035C15.6013 19.6925 15.235 19.2753 15.234 18.769C15.2241 18.2627 15.5884 17.8433 16.0426 17.8312H16.0525C16.5165 17.8312 16.8927 18.2484 16.8927 18.7657C16.8937 19.283 16.5185 19.7024 16.0554 19.7035ZM11.1721 14.779C11.1919 15.2853 11.568 15.6804 12.0222 15.6584C12.4665 15.6353 12.821 15.217 12.8012 14.7107C12.7903 14.2154 12.425 13.8302 11.9807 13.8313C11.5266 13.8533 11.1711 14.2726 11.1721 14.779ZM12.0261 19.6539C11.572 19.6759 11.1968 19.2808 11.176 18.7745C11.176 18.2682 11.5305 17.8499 11.9847 17.8268C12.429 17.8257 12.7953 18.2109 12.8051 18.7051C12.8259 19.2126 12.4704 19.6308 12.0261 19.6539ZM7.1043 14.8175C7.12405 15.3238 7.50022 15.7201 7.95439 15.6969C8.39869 15.6749 8.75314 15.2556 8.73241 14.7492C8.72253 14.2539 8.35722 13.8687 7.91194 13.8698C7.45777 13.8918 7.10332 14.3112 7.1043 14.8175ZM7.95836 19.6594C7.50419 19.6826 7.12901 19.2863 7.10827 18.78C7.10728 18.2737 7.46272 17.8543 7.91689 17.8323C8.36119 17.8312 8.72749 18.2164 8.73736 18.7117C8.7581 19.2181 8.40365 19.6374 7.95836 19.6594Z" fill="#030229"/>
</g>
</svg>
