<svg width="24" height="22" viewBox="0 0 24 22" fill="none" xmlns="http://www.w3.org/2000/svg">
<g opacity="0.4">
<path fill-rule="evenodd" clip-rule="evenodd" d="M21.7872 7.20107C21.6518 7.34592 21.4681 7.42869 21.2747 7.42869C20.559 7.42869 19.9787 8.04948 19.9787 8.80476C19.9787 9.56522 20.5522 10.1829 21.2611 10.1912C21.6605 10.1953 22 10.4933 22 10.9206V13.5744C22 15.8082 20.3075 17.6199 18.2186 17.6199H15.0658C14.7398 17.6199 14.4758 17.3374 14.4758 16.9887V14.7539C14.4758 14.3194 14.1567 13.9779 13.7505 13.9779C13.354 13.9779 13.0251 14.3194 13.0251 14.7539V16.9887C13.0251 17.3374 12.7611 17.6199 12.4362 17.6199H5.78143C3.70213 17.6199 2 15.8093 2 13.5744V10.9206C2 10.4933 2.33946 10.1953 2.73888 10.1912C3.44874 10.1829 4.02128 9.56522 4.02128 8.80476C4.02128 8.07017 3.46035 7.51146 2.72534 7.51146C2.53191 7.51146 2.34816 7.42869 2.21277 7.28384C2.07737 7.13899 2 6.94241 2 6.73549V4.05578C2 1.8251 3.706 0 5.7911 0H12.4362C12.7611 0 13.0251 0.282456 13.0251 0.631129V3.2798C13.0251 3.704 13.354 4.05578 13.7505 4.05578C14.1567 4.05578 14.4758 3.704 14.4758 3.2798V0.631129C14.4758 0.282456 14.7398 0 15.0658 0H18.2186C20.3075 0 22 1.81061 22 4.04543V6.65272C22 6.85964 21.9226 7.05622 21.7872 7.20107ZM13.7505 11.9707C14.1567 11.9707 14.4758 11.619 14.4758 11.1948V7.05622C14.4758 6.63202 14.1567 6.28025 13.7505 6.28025C13.354 6.28025 13.0251 6.63202 13.0251 7.05622V11.1948C13.0251 11.619 13.354 11.9707 13.7505 11.9707Z" fill="#030229"/>
</g>
</svg>
