<svg width="24" height="27" viewBox="0 0 24 27" fill="none" xmlns="http://www.w3.org/2000/svg">
<g opacity="0.4">
<path fill-rule="evenodd" clip-rule="evenodd" d="M20.4023 14.955C20.7599 15.1642 21.0359 15.4946 21.23 15.825C21.6082 16.5077 21.5775 17.3447 21.2096 18.0825L20.4942 19.404C20.1161 20.1088 19.411 20.5493 18.6854 20.5493C18.3277 20.5493 17.9291 20.4392 17.6021 20.2189C17.3364 20.0317 17.0298 19.9656 16.7028 19.9656C15.691 19.9656 14.8428 20.8797 14.8121 21.9699C14.8121 23.2363 13.8719 24.2274 12.6967 24.2274H11.3068C10.1214 24.2274 9.18116 23.2363 9.18116 21.9699C9.16072 20.8797 8.3125 19.9656 7.30076 19.9656C6.96351 19.9656 6.65693 20.0317 6.40144 20.2189C6.07441 20.4392 5.66563 20.5493 5.31816 20.5493C4.58235 20.5493 3.8772 20.1088 3.49908 19.404L2.79393 18.0825C2.4158 17.3667 2.39536 16.5077 2.77349 15.825C2.937 15.4946 3.24359 15.1642 3.59106 14.955C3.8772 14.8008 4.06116 14.5475 4.23489 14.2502C4.74587 13.3031 4.43928 12.0587 3.57062 11.4971C2.55888 10.8694 2.23185 9.4708 2.81437 8.38057L3.49908 7.08111C4.09181 5.99088 5.35904 5.60544 6.381 6.24416C7.2701 6.77276 8.42491 6.42036 8.94611 5.48431C9.10962 5.17596 9.2016 4.84559 9.18116 4.51521C9.16072 4.08573 9.27314 3.67827 9.46731 3.3479C9.84543 2.66513 10.5301 2.22463 11.2762 2.20261H12.7171C13.4734 2.20261 14.1581 2.66513 14.5362 3.3479C14.7202 3.67827 14.8428 4.08573 14.8121 4.51521C14.7917 4.84559 14.8837 5.17596 15.0472 5.48431C15.5684 6.42036 16.7232 6.77276 17.6225 6.24416C18.6343 5.60544 19.9117 5.99088 20.4942 7.08111L21.1789 8.38057C21.7717 9.4708 21.4447 10.8694 20.4227 11.4971C19.554 12.0587 19.2474 13.3031 19.7686 14.2502C19.9322 14.5475 20.1161 14.8008 20.4023 14.955ZM9.10962 13.226C9.10962 14.955 10.4075 16.3315 12.012 16.3315C13.6165 16.3315 14.8837 14.955 14.8837 13.226C14.8837 11.4971 13.6165 10.1095 12.012 10.1095C10.4075 10.1095 9.10962 11.4971 9.10962 13.226Z" fill="#030229"/>
</g>
</svg>
